<?xml version="1.0" encoding="utf-8" ?><svg xmlns="http://www.w3.org/2000/svg" xmlns:xlink="http://www.w3.org/1999/xlink" width="2048" height="2048" viewBox="0 0 2048 2048"><path fill="#234A89" transform="matrix(2 0 0 2 0 6.10352e-05)" d="M0 0L1024 0L1024 1024L0 1024L0 0Z"/><path fill="white" transform="matrix(2 0 0 2 0 6.10352e-05)" d="M1.20039 2.07573L1022.76 2.0293L1022.56 1022.37C1020.08 1023.5 796.305 1022.78 779.753 1022.79L199.202 1022.77L87.5451 1022.75L50.7131 1022.81C45.7507 1022.81 31.1465 1023.36 27.1858 1021.94L1.39838 1021.91L1.20039 2.07573Z"/><path fill="#152374" transform="matrix(2 0 0 2 0 6.10352e-05)" d="M27.1858 1021.94L799.71 1021.85L976.572 1021.86C984.252 1021.92 1017.28 1021 1022.56 1022.37C1020.08 1023.5 796.305 1022.78 779.753 1022.79L199.202 1022.77L87.5451 1022.75L50.7131 1022.81C45.7507 1022.81 31.1465 1023.36 27.1858 1021.94Z"/><path fill="#060F74" transform="matrix(2 0 0 2 0 6.10352e-05)" d="M234.925 229.708C255.354 228.783 281.294 231.214 300.549 239.196C364.528 266.22 407.989 325.913 445.245 381.883C466.63 414.009 484.533 447.278 506.417 478.946C507.537 480.567 519.073 486.951 521.672 488.604L521.484 474.124C499.349 466.491 485.398 450.08 494.428 425.846C506.311 393.957 539.46 382.511 570.303 394.176C599.27 405.132 613.855 446.96 585.007 466.694C579.565 470.417 574.475 472.442 568.438 474.945C568.046 483.497 568.042 491.904 568.078 500.461C577.621 507.344 595.267 516.968 605.954 523.068L662.138 555.685C668.46 541.606 674.237 532.958 688.084 525.325C725.261 504.831 775.347 520.047 789.941 561.098C792.644 568.704 793.278 576.999 790.83 584.732C786.172 599.78 773.605 605.667 760.591 612.344C794.386 634.423 831.014 652.03 864.717 674.179C870.921 678.627 878.285 684.985 878.382 693.358C878.615 713.563 878.132 733.943 878.29 754.176C878.377 755.98 878.136 765.674 876.894 766.5C857.574 779.345 836.548 792.155 816.976 804.563C790.408 821.515 761.935 839.276 735.136 856.015C727.098 861.036 711.231 859.48 702.727 855.002C688.117 847.308 673.325 838.607 658.795 830.15L588.694 789.687L316.394 631.401L207.684 567.431L167.221 543.633C162.841 541.029 151.032 534.347 147.462 531.494C145.292 524.049 147.023 475.622 146.713 465.108C146.702 461.114 147.118 456.182 150.469 453.342C160.262 445.046 173.171 438.491 184.004 431.606C218.277 409.824 252.9 388.667 286.748 366.253C290.823 363.555 295.849 360.471 299.302 357.077C284.28 350.519 261.3 345.183 244.994 342.183C216.308 336.906 187.042 336.243 163.053 316.979C154.986 310.251 149.623 301.914 148.72 291.439C146.982 271.274 152.917 258.196 170.376 247.349C190.262 234.993 211.976 231.431 234.925 229.708Z"/><path fill="white" transform="matrix(2 0 0 2 0 6.10352e-05)" d="M151.598 471.651C156.581 475.51 167.134 481.082 172.998 484.487L212.509 507.497L332.845 577.613L601.046 732.638C633.509 751.462 665.72 770.449 697.547 790.329C702.715 793.557 709.082 795.5 715.097 796.367L715.554 796.438L717.263 796.312C729.179 798.101 739.782 791.651 749.474 785.839L751.395 784.972C752.145 784.064 751.8 784.461 753.145 783.967L754.399 784.247C754.648 783.469 754.977 782.872 755.329 782.129C756.849 781.048 756.062 781.195 757.715 781.434L758.699 780.028C759.379 789.855 758.934 805.674 758.838 815.731C758.102 820.129 759.094 831.576 757.714 833.946C756.614 835.976 757.101 835.293 754.997 836.63L753.883 836.948C752.927 838.151 752.842 838.071 751.454 838.809L749.648 839.795C740.864 848.07 729.747 853.566 717.581 853.91C716.879 853.85 715.31 853.927 714.534 853.941C703.713 851.066 689.57 841.823 679.416 835.94L649.572 818.79L583.452 780.771L269.471 597.354L197.615 555.068C182.179 546.066 167.146 537.66 151.948 528.17C151.48 509.721 151.527 490.102 151.598 471.651Z"/><path fill="white" transform="matrix(2 0 0 2 0 6.10352e-05)" d="M757.715 781.434L758.699 780.028C759.379 789.855 758.934 805.674 758.838 815.731C758.102 820.129 759.094 831.576 757.714 833.946C756.614 835.976 757.101 835.293 754.997 836.63L753.883 836.948C752.927 838.151 752.842 838.071 751.454 838.809L749.648 839.795C740.864 848.07 729.747 853.566 717.581 853.91L717.277 798.218L717.263 796.312C729.179 798.101 739.782 791.651 749.474 785.839L751.395 784.972C752.145 784.064 751.8 784.461 753.145 783.967L754.399 784.247C754.648 783.469 754.977 782.872 755.329 782.129C756.849 781.048 756.062 781.195 757.715 781.434Z"/><path fill="white" transform="matrix(2 0 0 2 0 6.10352e-05)" d="M757.715 781.434L758.699 780.028C759.379 789.855 758.934 805.674 758.838 815.731C758.102 820.129 759.094 831.576 757.714 833.946C756.614 835.976 757.101 835.293 754.997 836.63C754.578 824.719 755.162 811.931 754.834 799.949C754.706 795.313 755.02 788.649 754.399 784.247C754.648 783.469 754.977 782.872 755.329 782.129C756.849 781.048 756.062 781.195 757.715 781.434Z"/><path fill="#101849" transform="matrix(2 0 0 2 0 6.10352e-05)" d="M757.715 781.434L758.699 780.028C759.379 789.855 758.934 805.674 758.838 815.731C758.102 820.129 759.094 831.576 757.714 833.946C757.443 831.467 757.431 828.947 757.443 826.454C757.519 811.459 757.132 796.419 757.715 781.434Z"/><path fill="white" transform="matrix(2 0 0 2 0 6.10352e-05)" d="M751.395 784.972C752.145 784.064 751.8 784.461 753.145 783.967L754.399 784.247C755.02 788.649 754.706 795.313 754.834 799.949C755.162 811.931 754.578 824.719 754.997 836.63L753.883 836.948C752.927 838.151 752.842 838.071 751.454 838.809L751.395 784.972Z"/><path fill="#434460" transform="matrix(2 0 0 2 0 6.10352e-05)" d="M754.399 784.247C755.02 788.649 754.706 795.313 754.834 799.949C755.162 811.931 754.578 824.719 754.997 836.63L753.883 836.948C752.96 825.594 754.12 810.317 753.565 798.614C753.342 793.893 753.827 788.696 753.145 783.967L754.399 784.247Z"/><path fill="#152374" transform="matrix(2 0 0 2 0 6.10352e-05)" d="M749.474 785.839L751.395 784.972L751.454 838.809L749.648 839.795C749.25 822.173 749.514 803.541 749.474 785.839Z"/><path fill="#060F74" transform="matrix(2 0 0 2 0 6.10352e-05)" d="M715.097 796.367L715.554 796.438L717.263 796.312L717.277 798.218L717.581 853.91C716.879 853.85 715.31 853.927 714.534 853.941C715.641 850.982 715.037 802.852 715.097 796.367Z"/><path fill="#152374" transform="matrix(2 0 0 2 0 6.10352e-05)" d="M715.554 796.438L717.263 796.312L717.277 798.218C715.828 803.79 717.627 827.087 716.213 834.188C715.464 822.494 715.488 808.227 715.554 796.438Z"/><path fill="white" transform="matrix(2 0 0 2 0 6.10352e-05)" d="M291.784 384.804L292.093 385.53C288.656 391.014 288.224 398.05 289.042 404.325C276.676 410.469 278.55 420.03 272.128 433.007C265.14 437.796 248.331 447.802 243.04 452.66C242.91 455.443 242.417 467.041 243.569 470.127C244.327 472.158 247.901 473.928 249.895 475.158C269.336 487.15 289.113 498.382 308.855 509.86L404.884 566.084L514.995 630.017C529.285 638.194 545.792 648.813 560.15 656.1C568.755 651.254 579.961 643.683 588.742 638.345L615.509 621.732C620.455 618.619 626.402 615.09 631.017 611.618C631.026 604.52 631.322 592.099 630.383 585.45C619.586 579.446 605.792 573.42 594.582 567.956C594.356 558.021 594.533 547.256 594.502 537.23C602.164 540.69 609.723 545.958 617.077 550.021C631.312 557.885 645.454 565.908 659.434 574.221C659.697 596.495 676.972 607.438 696.475 613.503C696.803 621.174 696.516 630.445 696.467 638.235C681.2 640.438 655.314 655.534 650.232 670.953C624.953 747.641 768.089 758.318 795.45 706.77C797.451 701.254 796.856 693.829 797.136 688.13C797.883 672.943 788.585 661.591 776.537 653.848C767.378 647.962 760.164 643.299 749.995 639.478C749.97 635.615 750.175 632.062 750.388 628.203C775.87 640.691 801.082 659.462 826.495 672.673C832.982 676.046 840.45 680.245 846.158 684.744C860.841 696.206 840.743 706.31 831.714 711.628C806.848 726.276 782.829 742.28 758.91 758.33C744.881 767.743 724.698 783.062 707.355 773.416C688.969 763.19 670.677 751.666 652.242 741.02L518.901 664.182L301.541 537.536L221.119 490.424C209.819 483.786 198.381 477.296 187.059 470.699C182.236 467.888 181.003 466.081 179.132 461.117C179.913 458.457 180.933 455.395 183.189 453.669C190.368 448.174 199.382 443.38 207.094 438.524L257.204 406.928C266.986 400.881 283.089 391.668 291.784 384.804Z"/><path fill="white" transform="matrix(2 0 0 2 0 6.10352e-05)" d="M233.231 235.294C249.27 234.15 265.884 235.105 281.528 238.952C370.545 260.847 433.332 373.137 478.659 445.561C488.609 461.459 498.763 477.184 509.234 492.744C513.358 498.874 518.301 504.665 522.106 510.954C522.16 513.715 522.066 516.661 522.027 519.438C516.836 521.99 498.089 533.18 495.593 538.438C494.053 541.681 497.704 557.534 499.355 561.278C501.785 566.789 503.536 568.766 508.978 570.885L516.915 568.63C523.172 570.377 534.204 577.277 529.838 586.86C528.396 590.024 521.072 588.057 517.456 588.201C511.541 581.478 506.035 576.193 500.201 569.054C494.575 561.87 488.359 554.188 483.513 546.474C478.623 538.74 474.993 530.323 470.486 522.378C435.177 460.142 397.647 393.986 336.648 353.431C314.322 339.189 290.571 330.657 264.863 324.879C230.391 317.13 186.322 318.902 161.219 290.082C153.483 281.201 153.432 269.645 161.743 261.086C179.565 242.734 208.529 236.988 233.231 235.294Z"/><path fill="#060F74" transform="matrix(2 0 0 2 0 6.10352e-05)" d="M239.967 258.624C264.638 256.607 273.258 275.757 248.314 283.2C224.716 286.332 214.515 263.677 239.967 258.624Z"/><path fill="white" transform="matrix(2 0 0 2 0 6.10352e-05)" d="M232.038 271.992L230.237 272.426C228.875 271.454 229.2 272.085 228.898 270.683L229.729 269.848L231.385 270.258L232.11 269.237C232.21 267.531 232.15 267.053 232.824 265.44C234.703 263.696 237.455 263.176 240.004 262.463C241.732 262.884 241.639 262.8 242.974 263.956L243.526 263.828C248.32 262.763 255.386 263.128 257.989 268.036C258.263 270.568 257.154 270.81 256.353 273.027C256.235 273.354 257.265 275.048 256.603 275.497C250.825 279.415 239.793 282.263 234.352 276.343C234.014 275.976 233.909 275.442 233.793 275.02L234.696 274.572C236.355 275.245 236.678 275.31 238.105 276.489L238.553 278.086C240.898 277.565 238.686 275.308 242.812 277.847L243.537 277.747C242.919 276.197 239.114 275.406 237.521 274.596C235.31 273.472 233.57 274.026 231.403 274.969L231.13 274.417C231.465 273.764 231.767 273.201 232.125 272.551L232.038 271.992Z"/><path fill="#152374" transform="matrix(2 0 0 2 0 6.10352e-05)" d="M232.038 271.992L230.237 272.426C228.875 271.454 229.2 272.085 228.898 270.683L229.729 269.848L231.385 270.258L232.11 269.237C232.21 267.531 232.15 267.053 232.824 265.44C234.703 263.696 237.455 263.176 240.004 262.463L240.583 264.27C239.927 265.367 240.217 265.044 239.242 265.794C240.138 267.488 242.098 270.802 243.855 271.566L244.467 271.189C244.924 268.557 243.696 267.488 241.531 266.38L241.484 265.818C243.396 266.081 246.436 267.27 247.528 268.868C246.922 270.333 245.119 271.68 245.12 271.757C245.14 273.647 247.144 276.253 246.805 278.203C244.85 277.658 243.864 275.127 243.11 273.422L242.149 272.772L241.512 273.061C235.708 275.649 237.605 269.725 233.71 270.257C232.914 270.976 232.596 271.12 232.038 271.992Z"/><path fill="#152374" transform="matrix(2 0 0 2 0 6.10352e-05)" d="M254.465 265.919L255.226 266.268C255.863 268.681 256.456 270.08 254.926 272.215C253.556 270.51 254.775 269.121 253.104 266.481L252.237 266.6C251.359 267.679 251.288 267.605 251.036 268.944L252.156 270.227C251.806 271.763 252.13 271.03 250.594 272.242L250.247 272.35C248.976 273.818 249.932 274.781 248.783 276.368L248.119 275.735C247.683 274.022 247.613 274.072 248.002 272.255C251.639 269.001 248.633 269.65 249.449 266.685C251.134 265.678 252.47 265.914 254.465 265.919Z"/><path fill="white" transform="matrix(2 0 0 2 0 6.10352e-05)" d="M153.541 286.827C156.95 289.543 160.94 297.415 166.553 301.591C196.492 323.862 234.733 321.774 269.555 330.571C293.566 336.637 315.971 344.594 336.701 358.541C387.298 393.245 421.992 445.507 452.089 497.88C456.611 506.627 463.148 515.743 467.233 524.554C474.77 540.808 482.843 552.749 493.515 566.937C512.174 591.742 532.587 609.227 559.266 625.186C558.921 627.333 558.655 629.523 558.371 631.681C537.655 621.764 516.622 609.457 496.682 597.934L439.058 564.767C384.05 532.877 329.256 501.803 274.763 468.959C266.43 464.107 257.811 459.224 249.68 454.082C257.414 449.438 263.933 445.537 271.933 441.271L272.018 441.811C273.221 449.151 275.411 456.332 280.913 461.505C296.083 475.766 308.859 470.711 321.43 457.916C322.949 470.812 325.418 487.396 328.649 499.919C334.404 497.114 345.709 489.124 352.148 485.003C361.125 478.714 371.865 474.205 380.158 467.112C382.152 465.407 378.367 460.913 377.52 459.173C372.451 448.765 368.495 437.129 367.757 425.508C379.71 434.63 395.383 441.572 406.66 449.643C412.823 454.055 429.5 484.625 433.555 491.617C392.517 500.942 409.914 550.645 441.677 556.219C451.09 557.871 459.918 547.869 459.555 538.252C458.937 521.915 447.598 507.385 439.314 493.883C428.598 475.544 417.942 456.997 406.505 439.09C396.889 424.033 383.423 408.661 370.778 396.061C335.133 360.546 284.1 344.009 235.483 336.072C209.511 332.354 181.522 329.187 161.908 309.743C155.522 303.412 153.289 295.599 153.541 286.827Z"/><path fill="white" transform="matrix(2 0 0 2 0 6.10352e-05)" d="M299.101 363.906L299.629 364.19C299.963 367.006 299.633 370.012 299.452 372.869C296.029 376.277 272.625 390.817 267.3 394.162L201.043 435.889C193.663 440.581 184.799 445.087 178.451 450.894C175.739 453.375 174.711 457.125 173.765 460.561C175.811 468.568 179.324 472.262 186.337 476.451C219.927 496.517 253.942 515.99 287.709 535.745L515.842 668.641L651.072 746.031C663.179 752.953 675.04 760.391 686.998 767.575C693.079 771.228 699.23 775.39 705.723 778.256C713.727 781.79 722.476 782.047 730.914 780.018C742.561 777.218 787.701 745.221 800.403 737.251L830.258 718.868C836.496 715.06 842.495 711.593 848.46 707.303C858.186 700.907 860.118 687.74 849.905 680.55C836.932 671.417 822.137 663.548 808.288 655.593C788.891 644.45 769.879 632.069 750.315 621.32L751.242 614.779C757.182 616.741 774.053 626.965 780.234 630.528C799.002 641.907 818.233 652.525 836.965 664.014C847.833 670.88 860.422 676.651 869.412 685.989C873.946 690.699 873.25 698.222 868.715 702.483C863.293 707.578 856.252 711.635 849.945 715.652C827.608 729.882 804.691 743.252 782.219 757.269C776.474 760.854 771.186 765.43 765.715 769.419C757.638 774.75 749.625 780.157 741.294 785.084C728.883 792.671 712.896 793.484 700.185 785.737C671.252 768.104 642.131 749.938 612.637 733.144L241.402 517.819L179.357 481.899C174.004 478.826 168.515 475.92 163.161 472.854C156.842 469.235 152.226 468.012 152.347 459.878C154.58 454.994 186.459 436.504 193.292 432.224L264.09 387.355C274.877 380.422 289.417 371.82 299.101 363.906Z"/><path fill="white" transform="matrix(2 0 0 2 0 6.10352e-05)" d="M719.277 521.699C749.092 518.537 778.068 537.953 785.871 567.071C779.773 587.888 751.299 594.291 732.625 595.978C706.49 597.406 682.772 591.383 664.555 572.008C665.829 540.906 690.481 524.693 719.277 521.699Z"/><path fill="white" transform="matrix(2 0 0 2 0 6.10352e-05)" d="M831.419 733.69L832.815 732.855C833.3 750.529 832.359 768.613 832.775 786.173C832.326 786.908 831.981 787.553 831.446 788.219C830.449 789.395 830.504 789.446 829.196 790.208C827.965 790.374 827.938 790.266 827.011 791.046L824.125 793.594C823.129 794.499 823.547 794.265 822.322 794.768L819.021 796.851L817.478 797.676L814.098 799.651L812.743 800.398L809.983 802.481L808.309 803.209L805.04 805.358L803.526 806.059L800.321 808.374L798.624 809.482C796.84 810.22 796.719 810.247 795.167 811.351L793.596 812.452C792.11 813.255 791.651 813.554 789.983 814.029L789.161 814.177L788.751 812.859C788.254 815.661 788.484 815.78 785.769 817.481L784.079 818.634C783.122 819.216 782.07 819.824 781.141 820.433L779.46 821.519L776.207 823.18C774.932 823.761 775.341 823.297 774.688 824.336L772.122 826.517C771.556 826.947 771.207 827.255 770.587 827.6C769.247 828.143 768.608 828.438 767.163 828.739L766 829.219C765.106 830.833 765.275 830.78 762.982 831.646L761.827 832.2C760.51 833.607 761.268 833.291 759.67 833.552C758.245 831.485 758.834 819.253 758.838 815.731C758.934 805.674 759.379 789.855 758.699 780.028C759.828 778.76 760.298 778.634 761.787 777.888L763.01 777.141C763.994 776.234 764.364 776.293 765.694 775.916L766.783 774.535L769.896 772.426L771.54 771.832C772.311 770.741 773.344 770.312 774.52 769.634L775.932 768.787C776.938 767.647 778.15 766.968 779.423 766.123L780.959 765.314L783.968 763.079L785.717 762.375C786.686 761.722 788.034 761.018 789.078 760.428L790.617 759.599L793.376 757.472C793.668 757.089 794.921 756.654 795.476 756.41L797.951 754.536C798.244 754.479 799.736 753.874 800.114 753.729C800.95 752.563 802.236 751.946 803.484 751.172L804.97 750.519C805.621 749.821 807.251 748.8 808.109 748.209L809.557 747.504C810.425 746.891 811.538 746.389 812.503 745.897L814.067 745.062C814.975 744.118 816.336 743.318 817.457 742.557L819.053 741.807L821.953 740.027C822.842 739.846 822.982 739.527 823.826 738.873C824.708 737.83 825.718 737.33 826.882 736.608L828.402 736.017C829.312 734.817 830.137 734.46 831.419 733.69Z"/><path fill="white" transform="matrix(2 0 0 2 0 6.10352e-05)" d="M789.078 760.428L788.751 812.859C788.254 815.661 788.484 815.78 785.769 817.481L784.079 818.634C783.122 819.216 782.07 819.824 781.141 820.433L779.46 821.519L776.207 823.18C774.932 823.761 775.341 823.297 774.688 824.336L772.122 826.517C771.556 826.947 771.207 827.255 770.587 827.6C769.247 828.143 768.608 828.438 767.163 828.739L766 829.219C765.106 830.833 765.275 830.78 762.982 831.646L761.827 832.2C760.51 833.607 761.268 833.291 759.67 833.552C758.245 831.485 758.834 819.253 758.838 815.731C758.934 805.674 759.379 789.855 758.699 780.028C759.828 778.76 760.298 778.634 761.787 777.888L763.01 777.141C763.994 776.234 764.364 776.293 765.694 775.916L766.783 774.535L769.896 772.426L771.54 771.832C772.311 770.741 773.344 770.312 774.52 769.634L775.932 768.787C776.938 767.647 778.15 766.968 779.423 766.123L780.959 765.314L783.968 763.079L785.717 762.375C786.686 761.722 788.034 761.018 789.078 760.428Z"/><path fill="white" transform="matrix(2 0 0 2 0 6.10352e-05)" d="M789.078 760.428L788.751 812.859C788.254 815.661 788.484 815.78 785.769 817.481L784.079 818.634C783.122 819.216 782.07 819.824 781.141 820.433L779.46 821.519L776.207 823.18C776.717 817.755 776.445 806.636 776.397 800.969C776.31 790.759 776.586 778.869 775.932 768.787C776.938 767.647 778.15 766.968 779.423 766.123L780.959 765.314L783.968 763.079L785.717 762.375C786.686 761.722 788.034 761.018 789.078 760.428Z"/><path fill="white" transform="matrix(2 0 0 2 0 6.10352e-05)" d="M779.423 766.123L780.959 765.314L780.972 801.47C780.96 806.205 780.668 816.3 781.141 820.433L779.46 821.519L776.207 823.18C776.717 817.755 776.445 806.636 776.397 800.969C776.31 790.759 776.586 778.869 775.932 768.787C776.938 767.647 778.15 766.968 779.423 766.123Z"/><path fill="#152374" transform="matrix(2 0 0 2 0 6.10352e-05)" d="M779.423 766.123L780.959 765.314L780.972 801.47C780.96 806.205 780.668 816.3 781.141 820.433L779.46 821.519L779.423 766.123Z"/><path fill="white" transform="matrix(2 0 0 2 0 6.10352e-05)" d="M789.078 760.428L788.751 812.859C788.254 815.661 788.484 815.78 785.769 817.481C785.234 799.7 785.653 780.262 785.717 762.375C786.686 761.722 788.034 761.018 789.078 760.428Z"/><path fill="#152374" transform="matrix(2 0 0 2 0 6.10352e-05)" d="M783.968 763.079L785.717 762.375C785.653 780.262 785.234 799.7 785.769 817.481L784.079 818.634C784.155 800.735 784.598 780.83 783.968 763.079Z"/><path fill="white" transform="matrix(2 0 0 2 0 6.10352e-05)" d="M763.01 777.141C763.994 776.234 764.364 776.293 765.694 775.916C765.469 789.952 765.617 804.008 765.646 818.047C765.654 821.773 765.595 825.51 766 829.219C765.106 830.833 765.275 830.78 762.982 831.646L761.827 832.2C760.51 833.607 761.268 833.291 759.67 833.552C758.245 831.485 758.834 819.253 758.838 815.731C758.934 805.674 759.379 789.855 758.699 780.028C759.828 778.76 760.298 778.634 761.787 777.888L763.01 777.141Z"/><path fill="white" transform="matrix(2 0 0 2 0 6.10352e-05)" d="M761.787 777.888C761.901 793.346 761.681 808.8 761.623 824.258C761.613 826.874 761.598 829.597 761.827 832.2C760.51 833.607 761.268 833.291 759.67 833.552C758.245 831.485 758.834 819.253 758.838 815.731C758.934 805.674 759.379 789.855 758.699 780.028C759.828 778.76 760.298 778.634 761.787 777.888Z"/><path fill="#434460" transform="matrix(2 0 0 2 0 6.10352e-05)" d="M763.01 777.141L762.982 831.646L761.827 832.2C761.598 829.597 761.613 826.874 761.623 824.258C761.681 808.8 761.901 793.346 761.787 777.888L763.01 777.141Z"/><path fill="white" transform="matrix(2 0 0 2 0 6.10352e-05)" d="M774.52 769.634L775.932 768.787C776.586 778.869 776.31 790.759 776.397 800.969C776.445 806.636 776.717 817.755 776.207 823.18C774.932 823.761 775.341 823.297 774.688 824.336L772.122 826.517C771.667 822.778 771.812 813.098 771.774 809.006L771.54 771.832C772.311 770.741 773.344 770.312 774.52 769.634Z"/><path fill="#152374" transform="matrix(2 0 0 2 0 6.10352e-05)" d="M774.52 769.634L775.932 768.787C776.586 778.869 776.31 790.759 776.397 800.969C776.445 806.636 776.717 817.755 776.207 823.18C774.932 823.761 775.341 823.297 774.688 824.336C774.817 806.2 774.587 787.79 774.52 769.634Z"/><path fill="#152374" transform="matrix(2 0 0 2 0 6.10352e-05)" d="M769.896 772.426L771.54 771.832L771.774 809.006C771.812 813.098 771.667 822.778 772.122 826.517C771.556 826.947 771.207 827.255 770.587 827.6C769.837 824.37 770.121 813.726 770.084 809.807C769.965 797.387 770.352 784.849 769.896 772.426Z"/><path fill="#101849" transform="matrix(2 0 0 2 0 6.10352e-05)" d="M766.783 774.535C767.25 782.138 767.064 791.209 767.091 798.924C767.126 808.747 767.298 818.939 767.163 828.739L766 829.219C765.595 825.51 765.654 821.773 765.646 818.047C765.617 804.008 765.469 789.952 765.694 775.916L766.783 774.535Z"/><path fill="white" transform="matrix(2 0 0 2 0 6.10352e-05)" d="M831.419 733.69L832.815 732.855C833.3 750.529 832.359 768.613 832.775 786.173C832.326 786.908 831.981 787.553 831.446 788.219C830.449 789.395 830.504 789.446 829.196 790.208C827.965 790.374 827.938 790.266 827.011 791.046L824.125 793.594C823.129 794.499 823.547 794.265 822.322 794.768L819.021 796.851L817.478 797.676L814.098 799.651L812.743 800.398L812.503 745.897L814.067 745.062C814.975 744.118 816.336 743.318 817.457 742.557L819.053 741.807L821.953 740.027C822.842 739.846 822.982 739.527 823.826 738.873C824.708 737.83 825.718 737.33 826.882 736.608L828.402 736.017C829.312 734.817 830.137 734.46 831.419 733.69Z"/><path fill="white" transform="matrix(2 0 0 2 0 6.10352e-05)" d="M831.419 733.69L832.815 732.855C833.3 750.529 832.359 768.613 832.775 786.173C832.326 786.908 831.981 787.553 831.446 788.219C830.449 789.395 830.504 789.446 829.196 790.208C827.965 790.374 827.938 790.266 827.011 791.046L824.125 793.594C823.581 788.957 823.832 779.631 823.824 774.498L823.826 738.873C824.708 737.83 825.718 737.33 826.882 736.608L828.402 736.017C829.312 734.817 830.137 734.46 831.419 733.69Z"/><path fill="white" transform="matrix(2 0 0 2 0 6.10352e-05)" d="M831.419 733.69L832.815 732.855C833.3 750.529 832.359 768.613 832.775 786.173C832.326 786.908 831.981 787.553 831.446 788.219C830.449 789.395 830.504 789.446 829.196 790.208C828.427 786.985 828.528 773.716 828.524 769.814L828.402 736.017C829.312 734.817 830.137 734.46 831.419 733.69Z"/><path fill="#101849" transform="matrix(2 0 0 2 0 6.10352e-05)" d="M831.419 733.69L832.815 732.855C833.3 750.529 832.359 768.613 832.775 786.173C832.326 786.908 831.981 787.553 831.446 788.219C830.932 784.313 831.206 773.715 831.227 769.357L831.419 733.69Z"/><path fill="#152374" transform="matrix(2 0 0 2 0 6.10352e-05)" d="M826.882 736.608L828.402 736.017L828.524 769.814C828.528 773.716 828.427 786.985 829.196 790.208C827.965 790.374 827.938 790.266 827.011 791.046C827.007 772.976 827.154 754.657 826.882 736.608Z"/><path fill="white" transform="matrix(2 0 0 2 0 6.10352e-05)" d="M821.953 740.027C822.842 739.846 822.982 739.527 823.826 738.873L823.824 774.498C823.832 779.631 823.581 788.957 824.125 793.594C823.129 794.499 823.547 794.265 822.322 794.768L819.021 796.851C819.588 778.752 819.315 759.903 819.053 741.807L821.953 740.027Z"/><path fill="#152374" transform="matrix(2 0 0 2 0 6.10352e-05)" d="M821.953 740.027C822.842 739.846 822.982 739.527 823.826 738.873L823.824 774.498C823.832 779.631 823.581 788.957 824.125 793.594C823.129 794.499 823.547 794.265 822.322 794.768C821.739 777.052 822.052 757.906 821.953 740.027Z"/><path fill="#152374" transform="matrix(2 0 0 2 0 6.10352e-05)" d="M817.457 742.557L819.053 741.807C819.315 759.903 819.588 778.752 819.021 796.851L817.478 797.676L817.457 742.557Z"/><path fill="#152374" transform="matrix(2 0 0 2 0 6.10352e-05)" d="M812.503 745.897L814.067 745.062C814.34 761.03 815.122 783.924 814.098 799.651L812.743 800.398L812.503 745.897Z"/><path fill="white" transform="matrix(2 0 0 2 0 6.10352e-05)" d="M800.114 753.729C800.423 771.277 800.669 790.82 800.321 808.374L798.624 809.482C796.84 810.22 796.719 810.247 795.167 811.351L793.596 812.452C792.11 813.255 791.651 813.554 789.983 814.029L789.161 814.177L788.751 812.859L789.078 760.428L790.617 759.599L793.376 757.472C793.668 757.089 794.921 756.654 795.476 756.41L797.951 754.536C798.244 754.479 799.736 753.874 800.114 753.729Z"/><path fill="white" transform="matrix(2 0 0 2 0 6.10352e-05)" d="M800.114 753.729C800.423 771.277 800.669 790.82 800.321 808.374L798.624 809.482C796.84 810.22 796.719 810.247 795.167 811.351C795.654 793.161 795.498 774.63 795.476 756.41L797.951 754.536C798.244 754.479 799.736 753.874 800.114 753.729Z"/><path fill="#152374" transform="matrix(2 0 0 2 0 6.10352e-05)" d="M800.114 753.729C800.423 771.277 800.669 790.82 800.321 808.374L798.624 809.482C798.399 800.657 799.568 759.997 797.951 754.536C798.244 754.479 799.736 753.874 800.114 753.729Z"/><path fill="#152374" transform="matrix(2 0 0 2 0 6.10352e-05)" d="M793.376 757.472C793.668 757.089 794.921 756.654 795.476 756.41C795.498 774.63 795.654 793.161 795.167 811.351L793.596 812.452C793.621 805.472 794.695 760.674 793.376 757.472Z"/><path fill="#101849" transform="matrix(2 0 0 2 0 6.10352e-05)" d="M789.078 760.428L790.617 759.599L790.493 794.537C790.488 798.48 790.644 810.572 789.983 814.029L789.161 814.177L788.751 812.859L789.078 760.428Z"/><path fill="white" transform="matrix(2 0 0 2 0 6.10352e-05)" d="M804.97 750.519C805.504 768.196 805.083 787.558 805.04 805.358L803.526 806.059L800.321 808.374C800.669 790.82 800.423 771.277 800.114 753.729C800.95 752.563 802.236 751.946 803.484 751.172L804.97 750.519Z"/><path fill="#152374" transform="matrix(2 0 0 2 0 6.10352e-05)" d="M804.97 750.519C805.504 768.196 805.083 787.558 805.04 805.358L803.526 806.059C803.259 787.943 803.481 769.326 803.484 751.172L804.97 750.519Z"/><path fill="white" transform="matrix(2 0 0 2 0 6.10352e-05)" d="M809.557 747.504C810.425 746.891 811.538 746.389 812.503 745.897L812.743 800.398L809.983 802.481C809.548 797.339 809.767 788.778 809.739 783.366L809.557 747.504Z"/><path fill="#152374" transform="matrix(2 0 0 2 0 6.10352e-05)" d="M809.557 747.504L809.739 783.366C809.767 788.778 809.548 797.339 809.983 802.481L808.309 803.209C807.943 785.14 808.292 766.395 808.109 748.209L809.557 747.504Z"/><path fill="white" transform="matrix(2 0 0 2 0 6.10352e-05)" d="M246.999 457.099C250.883 458.87 264.85 467.774 269.282 470.362L333.258 508.244L436.995 568.09C476.451 591.11 517.378 615.738 558.137 636.216L558.168 649.886C542.517 642.058 523.189 630.059 507.664 621.138L413.835 566.78L317.221 510.171C292.972 495.992 270.765 483.618 246.863 468.338C246.804 464.637 246.927 460.812 246.999 457.099Z"/><path fill="white" transform="matrix(2 0 0 2 0 6.10352e-05)" d="M701.499 615.1C713.847 617.529 719.377 618 731.965 617.65L732.09 675.436C739.779 673.285 744.83 671.959 749.412 664.924C749.796 660.903 749.592 655.095 749.566 650.925C759.37 654.507 762.563 660.497 758.032 670.819C754.411 679.067 746.323 683.299 738.152 686.152C721.901 690.709 699.744 688.118 688.937 673.842C682.138 664.861 688.117 654.319 696.368 648.917C696.438 654.882 695.617 660.444 696.811 666.366C697.599 670.269 703.206 674.781 705.075 669.964C698.576 662.892 700.657 658.825 700.86 649.559L701.499 615.1Z"/><path fill="white" transform="matrix(2 0 0 2 0 6.10352e-05)" d="M500.002 546.944C502.625 548.079 511.443 553.883 514.231 555.64C522.884 561.094 532.03 566.483 540.447 572.223C540.612 579.956 539.862 594.905 540.997 602.717C541.082 603.303 542.156 603.393 542.995 603.638C547.436 602.834 587.892 575.986 593.944 571.832C604.244 576.982 612.795 580.55 623.397 586.31C619.729 588.978 615.589 591.394 611.702 593.769C600.969 599.687 589.596 607.951 579.008 614.299C573.951 617.331 569.424 620.736 563.962 623.2C551.383 617.428 532.17 602.053 522.159 592.44C533.721 592.974 537.249 588.525 533.204 576.244C531.267 570.364 521.706 565.022 515.944 564.713C513.201 564.566 510.646 566.831 506.973 565.492C501.831 561.08 500.954 553.357 500.002 546.944Z"/><path fill="white" transform="matrix(2 0 0 2 0 6.10352e-05)" d="M670.931 663.96C671.621 664.768 670.64 669.351 670.624 671.006C670.568 688.614 684.574 698.464 699.747 704.052C723.088 712.647 760.014 706.79 772.69 683.018C775.132 678.438 775.083 673.432 774.919 668.338C783.397 675.058 787.255 679.564 786.904 691.023C786.174 695.371 784.376 698.586 781.273 701.751C768.762 714.514 746.22 718.086 729.25 718.556C706.134 719.086 680.855 716.182 663.26 699.645C655.084 691.961 655.281 685.224 660.841 675.976C663.709 671.206 666.893 667.763 670.931 663.96Z"/><path fill="white" transform="matrix(2 0 0 2 0 6.10352e-05)" d="M362.365 420.902C363.759 422.237 363.921 431.889 364.993 435.613C367.978 445.977 370.846 456.335 376.559 465.609C362.295 474.418 347.559 483.005 333.867 492.631C333.095 493.205 332.561 493.529 331.747 494.037C327.655 491.536 325.194 445.051 323.311 437.495C325.048 438.335 326.857 439.292 328.757 439.688C334.036 440.789 356.645 424.4 362.365 420.902Z"/><path fill="white" transform="matrix(2 0 0 2 0 6.10352e-05)" d="M870.723 709.004L871.519 707.911L872.262 708.01C873.135 712.123 872.543 722.725 872.619 727.357C872.793 737.81 872.719 748.543 872.432 759C872.375 761.071 871.776 762.865 870.226 764.288L868.738 763.655C867.771 765.038 867.341 765.812 866.139 767.004L864.662 767.478C863.001 768.924 862.867 769.056 860.898 769.973L860.313 769.8L859.801 768.524C859.374 771.264 859.255 771.448 856.653 772.495L855.116 772.03C854.691 774.312 853.743 774.56 851.833 775.802C850.716 776.942 851.392 776.623 849.928 777.04C848.825 777.649 847.699 778.254 846.614 778.89L845.126 779.442C843.681 781.029 843.75 780.94 841.739 781.759L840.525 782.599C839.047 783.87 838.637 784.187 836.996 785.227L835.635 785.355L833.793 786.806L832.938 786.657L832.775 786.173C832.359 768.613 833.3 750.529 832.815 732.855L836.098 731.218L837.519 730.139C838.006 729.788 840.17 728.665 840.818 728.31L842.363 727.255C842.922 726.807 844.723 725.732 845.419 725.289L846.982 724.241C847.66 723.63 849.504 722.585 850.366 722.056L851.766 721.892C853.078 720.393 853.11 720.478 854.944 719.563L856.388 719.59C856.977 717.532 858.305 716.865 860.021 715.895L861.496 715.067C862.611 713.849 863.402 713.503 864.803 712.595L865.929 711.65L869.025 710.286L870.723 709.004Z"/><path fill="white" transform="matrix(2 0 0 2 0 6.10352e-05)" d="M870.723 709.004L871.519 707.911L872.262 708.01C873.135 712.123 872.543 722.725 872.619 727.357C872.793 737.81 872.719 748.543 872.432 759C872.375 761.071 871.776 762.865 870.226 764.288L868.738 763.655C867.771 765.038 867.341 765.812 866.139 767.004L864.662 767.478C863.001 768.924 862.867 769.056 860.898 769.973L860.313 769.8L859.801 768.524C859.374 771.264 859.255 771.448 856.653 772.495L855.116 772.03C854.448 755.664 855.393 736.635 854.944 719.563L856.388 719.59C856.977 717.532 858.305 716.865 860.021 715.895L861.496 715.067C862.611 713.849 863.402 713.503 864.803 712.595L865.929 711.65L869.025 710.286L870.723 709.004Z"/><path fill="white" transform="matrix(2 0 0 2 0 6.10352e-05)" d="M870.723 709.004L871.519 707.911L872.262 708.01C873.135 712.123 872.543 722.725 872.619 727.357C872.793 737.81 872.719 748.543 872.432 759C872.375 761.071 871.776 762.865 870.226 764.288L868.738 763.655C867.771 765.038 867.341 765.812 866.139 767.004L864.662 767.478C864.261 758.359 864.492 747.803 864.494 738.608C864.496 730.546 864.336 720.544 864.803 712.595L865.929 711.65L869.025 710.286L870.723 709.004Z"/><path fill="white" transform="matrix(2 0 0 2 0 6.10352e-05)" d="M870.723 709.004L871.519 707.911L872.262 708.01C873.135 712.123 872.543 722.725 872.619 727.357C872.793 737.81 872.719 748.543 872.432 759C872.375 761.071 871.776 762.865 870.226 764.288L868.738 763.655C869.378 759.945 868.957 750.809 868.948 746.513L869.025 710.286L870.723 709.004Z"/><path fill="#101849" transform="matrix(2 0 0 2 0 6.10352e-05)" d="M870.723 709.004C870.342 724.176 870.819 739.404 870.774 754.583C870.764 757.896 870.952 761.031 870.226 764.288L868.738 763.655C869.378 759.945 868.957 750.809 868.948 746.513L869.025 710.286L870.723 709.004Z"/><path fill="#152374" transform="matrix(2 0 0 2 0 6.10352e-05)" d="M864.803 712.595L865.929 711.65C866.537 716.594 865.949 721.077 866.151 725.79C866.669 737.865 865.063 755.445 866.139 767.004L864.662 767.478C864.261 758.359 864.492 747.803 864.494 738.608C864.496 730.546 864.336 720.544 864.803 712.595Z"/><path fill="white" transform="matrix(2 0 0 2 0 6.10352e-05)" d="M860.021 715.895C859.904 730.965 859.018 754.182 859.801 768.524C859.374 771.264 859.255 771.448 856.653 772.495L855.116 772.03C854.448 755.664 855.393 736.635 854.944 719.563L856.388 719.59C856.977 717.532 858.305 716.865 860.021 715.895Z"/><path fill="#101849" transform="matrix(2 0 0 2 0 6.10352e-05)" d="M854.944 719.563L856.388 719.59C857.404 734.064 856.697 757.288 856.653 772.495L855.116 772.03C854.448 755.664 855.393 736.635 854.944 719.563Z"/><path fill="#101849" transform="matrix(2 0 0 2 0 6.10352e-05)" d="M860.021 715.895L861.496 715.067L861.413 749.09C861.389 754.828 861.506 764.484 860.898 769.973L860.313 769.8L859.801 768.524C859.018 754.182 859.904 730.965 860.021 715.895Z"/><path fill="white" transform="matrix(2 0 0 2 0 6.10352e-05)" d="M851.766 721.892C853.078 720.393 853.11 720.478 854.944 719.563C855.393 736.635 854.448 755.664 855.116 772.03C854.691 774.312 853.743 774.56 851.833 775.802C850.716 776.942 851.392 776.623 849.928 777.04C848.825 777.649 847.699 778.254 846.614 778.89L845.126 779.442C844.679 762.448 845.398 742.644 845.419 725.289L846.982 724.241C847.66 723.63 849.504 722.585 850.366 722.056L851.766 721.892Z"/><path fill="white" transform="matrix(2 0 0 2 0 6.10352e-05)" d="M851.766 721.892C853.078 720.393 853.11 720.478 854.944 719.563C855.393 736.635 854.448 755.664 855.116 772.03C854.691 774.312 853.743 774.56 851.833 775.802L852.063 742.362C852.089 737.033 852.365 726.904 851.766 721.892Z"/><path fill="#152374" transform="matrix(2 0 0 2 0 6.10352e-05)" d="M851.766 721.892C852.365 726.904 852.089 737.033 852.063 742.362L851.833 775.802C850.716 776.942 851.392 776.623 849.928 777.04C850.641 760.117 850.857 738.917 850.366 722.056L851.766 721.892Z"/><path fill="#101849" transform="matrix(2 0 0 2 0 6.10352e-05)" d="M846.982 724.241L846.614 778.89L845.126 779.442C844.679 762.448 845.398 742.644 845.419 725.289L846.982 724.241Z"/><path fill="white" transform="matrix(2 0 0 2 0 6.10352e-05)" d="M845.419 725.289C845.398 742.644 844.679 762.448 845.126 779.442C843.681 781.029 843.75 780.94 841.739 781.759L840.525 782.599C840.154 765.112 840.665 745.937 840.818 728.31L842.363 727.255C842.922 726.807 844.723 725.732 845.419 725.289Z"/><path fill="#152374" transform="matrix(2 0 0 2 0 6.10352e-05)" d="M840.818 728.31L842.363 727.255L842.17 763.347C842.111 768.364 842.275 777.104 841.739 781.759L840.525 782.599C840.154 765.112 840.665 745.937 840.818 728.31Z"/><path fill="white" transform="matrix(2 0 0 2 0 6.10352e-05)" d="M832.815 732.855L836.098 731.218C835.972 748.53 835.235 768.337 835.635 785.355L833.793 786.806L832.938 786.657L832.775 786.173C832.359 768.613 833.3 750.529 832.815 732.855Z"/><path fill="#101849" transform="matrix(2 0 0 2 0 6.10352e-05)" d="M837.519 730.139L836.996 785.227L835.635 785.355C835.235 768.337 835.972 748.53 836.098 731.218L837.519 730.139Z"/><path fill="white" transform="matrix(2 0 0 2 0 6.10352e-05)" d="M543.678 396.987L544.33 395.555C546.116 394.793 545.159 395.033 547.446 395.348L549.476 395.054C551.39 395.297 551.811 395.075 552.697 396.973L554.34 395.916C555.818 395.534 555.71 395.554 557.169 396.027C558.461 396.342 558.386 396.394 559.659 396.075C561.17 396.568 561.646 396.522 562.569 397.777L564.75 397.459C565.966 397.995 566.257 397.973 567.178 398.808L569.057 399.487C571.112 400.245 570.994 399.83 572.022 401.298C572.35 404.817 572.726 427.113 571.695 429.142L569.76 430.614L567.221 431.688L564.573 432.715L562.132 433.831L558.92 434.347L557.18 434.574L554.681 436.118L552.231 436.05L548.961 436.171L547.186 436.084L543.88 435.857C542.504 435.791 542.831 435.806 541.45 436.072C539.992 435.657 539.723 435.448 538.38 434.783L536.461 435.097L533.868 434.004C532.98 433.527 533.035 433.687 531.921 433.59C530.146 433.32 530.164 433.227 528.694 432.319L527.917 431.634L526.451 431.959C525.011 431.278 524.665 430.832 523.533 429.757L523.115 429.261L521.533 429.36C519.346 427.836 519.068 427.953 518.343 425.752C517.729 425.4 516.978 425.172 516.293 424.916C514.417 422.774 513.702 421.125 513.236 418.342C512.852 417.621 512.203 417.148 511.572 416.551C510.773 413.993 509.544 410.305 511.201 408.03L513.32 407.454C514.183 405.343 514.601 405.153 516.345 403.55L518.448 403.383C518.972 402.157 519.825 401.719 520.911 400.91C521.985 401.072 522.361 400.843 523.519 400.587C524.736 398.947 524.778 399.33 526.97 398.385L528.77 397.639L531.988 397.058L533.935 396.616C534.745 396.307 536.144 396.037 537.035 395.83L538.856 395.555L541.975 395.287C542.77 395.961 543.223 396.162 543.678 396.987Z"/><path fill="white" transform="matrix(2 0 0 2 0 6.10352e-05)" d="M531.988 397.058L531.921 433.59C530.146 433.32 530.164 433.227 528.694 432.319L527.917 431.634L526.451 431.959C525.011 431.278 524.665 430.832 523.533 429.757L523.115 429.261L521.533 429.36C519.346 427.836 519.068 427.953 518.343 425.752C517.729 425.4 516.978 425.172 516.293 424.916C514.417 422.774 513.702 421.125 513.236 418.342C512.852 417.621 512.203 417.148 511.572 416.551C510.773 413.993 509.544 410.305 511.201 408.03L513.32 407.454C514.183 405.343 514.601 405.153 516.345 403.55L518.448 403.383C518.972 402.157 519.825 401.719 520.911 400.91C521.985 401.072 522.361 400.843 523.519 400.587C524.736 398.947 524.778 399.33 526.97 398.385L528.77 397.639L531.988 397.058Z"/><path fill="white" transform="matrix(2 0 0 2 0 6.10352e-05)" d="M520.911 400.91C522.239 404.107 521.595 424.536 521.533 429.36C519.346 427.836 519.068 427.953 518.343 425.752C517.729 425.4 516.978 425.172 516.293 424.916C514.417 422.774 513.702 421.125 513.236 418.342C512.852 417.621 512.203 417.148 511.572 416.551C510.773 413.993 509.544 410.305 511.201 408.03L513.32 407.454C514.183 405.343 514.601 405.153 516.345 403.55L518.448 403.383C518.972 402.157 519.825 401.719 520.911 400.91Z"/><path fill="white" transform="matrix(2 0 0 2 0 6.10352e-05)" d="M516.345 403.55C516.59 407.843 516.759 420.809 516.293 424.916C514.417 422.774 513.702 421.125 513.236 418.342C512.852 417.621 512.203 417.148 511.572 416.551C510.773 413.993 509.544 410.305 511.201 408.03L513.32 407.454C514.183 405.343 514.601 405.153 516.345 403.55Z"/><path fill="#060F74" transform="matrix(2 0 0 2 0 6.10352e-05)" d="M511.201 408.03L513.32 407.454C513.32 411.03 513.379 414.788 513.236 418.342C512.852 417.621 512.203 417.148 511.572 416.551C510.773 413.993 509.544 410.305 511.201 408.03Z"/><path fill="#898ECC" transform="matrix(2 0 0 2 0 6.10352e-05)" d="M511.201 408.03C511.649 410.376 512.011 414.191 511.572 416.551C510.773 413.993 509.544 410.305 511.201 408.03Z"/><path fill="#152374" transform="matrix(2 0 0 2 0 6.10352e-05)" d="M516.345 403.55L518.448 403.383C518.586 409.625 518.857 419.726 518.343 425.752C517.729 425.4 516.978 425.172 516.293 424.916C516.759 420.809 516.59 407.843 516.345 403.55Z"/><path fill="white" transform="matrix(2 0 0 2 0 6.10352e-05)" d="M526.97 398.385C526.977 402.958 527.277 429.007 526.451 431.959C525.011 431.278 524.665 430.832 523.533 429.757L523.115 429.261L521.533 429.36C521.595 424.536 522.239 404.107 520.911 400.91C521.985 401.072 522.361 400.843 523.519 400.587C524.736 398.947 524.778 399.33 526.97 398.385Z"/><path fill="#152374" transform="matrix(2 0 0 2 0 6.10352e-05)" d="M520.911 400.91C521.985 401.072 522.361 400.843 523.519 400.587C523.593 405.21 524.106 426.545 523.533 429.757L523.115 429.261L521.533 429.36C521.595 424.536 522.239 404.107 520.911 400.91Z"/><path fill="#152374" transform="matrix(2 0 0 2 0 6.10352e-05)" d="M526.97 398.385L528.77 397.639C528.758 408.426 529.114 421.741 528.694 432.319L527.917 431.634L526.451 431.959C527.277 429.007 526.977 402.958 526.97 398.385Z"/><path fill="white" transform="matrix(2 0 0 2 0 6.10352e-05)" d="M541.975 395.287C542.77 395.961 543.223 396.162 543.678 396.987C544.633 403.71 543.947 428.027 543.88 435.857C542.504 435.791 542.831 435.806 541.45 436.072C539.992 435.657 539.723 435.448 538.38 434.783L536.461 435.097L533.868 434.004C532.98 433.527 533.035 433.687 531.921 433.59L531.988 397.058L533.935 396.616C534.745 396.307 536.144 396.037 537.035 395.83L538.856 395.555L541.975 395.287Z"/><path fill="white" transform="matrix(2 0 0 2 0 6.10352e-05)" d="M541.975 395.287C542.77 395.961 543.223 396.162 543.678 396.987C544.633 403.71 543.947 428.027 543.88 435.857C542.504 435.791 542.831 435.806 541.45 436.072C539.992 435.657 539.723 435.448 538.38 434.783C539.433 429.066 538.894 402.513 538.856 395.555L541.975 395.287Z"/><path fill="#152374" transform="matrix(2 0 0 2 0 6.10352e-05)" d="M541.975 395.287C542.77 395.961 543.223 396.162 543.678 396.987C544.633 403.71 543.947 428.027 543.88 435.857C542.504 435.791 542.831 435.806 541.45 436.072C542.626 433.531 542.129 400.464 541.975 395.287Z"/><path fill="#152374" transform="matrix(2 0 0 2 0 6.10352e-05)" d="M531.988 397.058L533.935 396.616L533.868 434.004C532.98 433.527 533.035 433.687 531.921 433.59L531.988 397.058Z"/><path fill="#152374" transform="matrix(2 0 0 2 0 6.10352e-05)" d="M537.035 395.83L538.856 395.555C538.894 402.513 539.433 429.066 538.38 434.783L536.461 435.097C537.658 431.844 537.081 401.193 537.035 395.83Z"/><path fill="white" transform="matrix(2 0 0 2 0 6.10352e-05)" d="M543.678 396.987L544.33 395.555C546.116 394.793 545.159 395.033 547.446 395.348L549.476 395.054C551.39 395.297 551.811 395.075 552.697 396.973C551.768 408.157 552.652 424.273 552.231 436.05L548.961 436.171L547.186 436.084L543.88 435.857C543.947 428.027 544.633 403.71 543.678 396.987Z"/><path fill="white" transform="matrix(2 0 0 2 0 6.10352e-05)" d="M543.678 396.987L544.33 395.555C546.116 394.793 545.159 395.033 547.446 395.348C547.434 408.3 547.737 423.311 547.186 436.084L543.88 435.857C543.947 428.027 544.633 403.71 543.678 396.987Z"/><path fill="#152374" transform="matrix(2 0 0 2 0 6.10352e-05)" d="M547.446 395.348L549.476 395.054C549.236 408.761 548.95 422.462 548.961 436.171L547.186 436.084C547.737 423.311 547.434 408.3 547.446 395.348Z"/><path fill="white" transform="matrix(2 0 0 2 0 6.10352e-05)" d="M564.75 397.459C565.966 397.995 566.257 397.973 567.178 398.808L569.057 399.487C571.112 400.245 570.994 399.83 572.022 401.298C572.35 404.817 572.726 427.113 571.695 429.142L569.76 430.614L567.221 431.688L564.573 432.715C564.123 428.519 564.193 401.577 564.75 397.459Z"/><path fill="white" transform="matrix(2 0 0 2 0 6.10352e-05)" d="M569.057 399.487C571.112 400.245 570.994 399.83 572.022 401.298C572.35 404.817 572.726 427.113 571.695 429.142L569.76 430.614C568.489 425.828 569.022 405.477 569.057 399.487Z"/><path fill="#152374" transform="matrix(2 0 0 2 0 6.10352e-05)" d="M567.178 398.808L569.057 399.487C569.022 405.477 568.489 425.828 569.76 430.614L567.221 431.688C566.869 421.467 566.957 409.034 567.178 398.808Z"/><path fill="white" transform="matrix(2 0 0 2 0 6.10352e-05)" d="M559.659 396.075C561.17 396.568 561.646 396.522 562.569 397.777L564.75 397.459C564.193 401.577 564.123 428.519 564.573 432.715L562.132 433.831L558.92 434.347C558.899 426.738 558.381 402.44 559.659 396.075Z"/><path fill="#152374" transform="matrix(2 0 0 2 0 6.10352e-05)" d="M562.569 397.777L564.75 397.459C564.193 401.577 564.123 428.519 564.573 432.715L562.132 433.831C562.046 422.604 562.058 408.922 562.569 397.777Z"/><path fill="#152374" transform="matrix(2 0 0 2 0 6.10352e-05)" d="M557.169 396.027C558.461 396.342 558.386 396.394 559.659 396.075C558.381 402.44 558.899 426.738 558.92 434.347L557.18 434.574C556.847 422.189 557.21 408.56 557.169 396.027Z"/><path fill="#152374" transform="matrix(2 0 0 2 0 6.10352e-05)" d="M554.34 395.916C554.026 400.697 553.426 433.785 554.681 436.118L552.231 436.05C552.652 424.273 551.768 408.157 552.697 396.973L554.34 395.916Z"/><path fill="white" transform="matrix(2 0 0 2 0 6.10352e-05)" d="M499.11 426.819C500.053 428.337 500.626 430.974 501.611 432.73C519.155 464.007 584.586 461.048 595.248 425.974C596.159 433.71 596.37 438.011 594.473 445.552C582.948 488.409 479.307 479.091 499.11 426.819Z"/><path fill="white" transform="matrix(2 0 0 2 0 6.10352e-05)" d="M428.772 498.162C431.285 498.111 434.689 498.559 437.256 498.811C447.336 510.384 471.665 551.546 440.302 552.138C415.048 546.919 400.371 503.149 428.772 498.162Z"/><path fill="#060F74" transform="matrix(2 0 0 2 0 6.10352e-05)" d="M426.525 506.547C428.734 506.415 430.365 506.345 432.565 506.852C446.372 510.037 459.485 539.847 443.622 547.759C430.513 549.121 421.272 534.847 420.364 523.238C419.751 515.411 418.259 510.314 426.525 506.547Z"/><path fill="white" transform="matrix(2 0 0 2 0 6.10352e-05)" d="M427.591 522.448L427.379 522.819L426.77 522.618C423.548 515.37 419.846 507.716 433.462 510.922C442.35 513.014 454.166 538.899 442.735 543.388C442.875 543.063 443.016 542.738 443.156 542.414C448.775 535.735 440.114 516.221 431.786 515.41C429.898 516.229 430.675 515.587 429.613 517.668C428.689 516.502 428.191 515.543 426.805 515.164C425.187 516.708 427.069 520.481 427.591 522.448Z"/><path fill="white" transform="matrix(2 0 0 2 0 6.10352e-05)" d="M431.011 532.396C434.786 532.554 436.351 534.447 440.317 533.816C441.23 533.671 440.976 533.771 441.833 534.494C442.261 537.033 440.937 541.323 440.165 543.825C435.131 543.977 425.787 537.976 431.011 532.396Z"/><path fill="white" transform="matrix(2 0 0 2 0 6.10352e-05)" d="M423.583 519.401C425.65 521.275 426.787 524.972 427.851 527.683L426.9 532.395L426.219 532.979L425.435 532.328C423.647 528.388 423.751 523.721 423.583 519.401Z"/><path fill="white" transform="matrix(2 0 0 2 0 6.10352e-05)" d="M432.523 519.733C434.972 520.823 437.907 522.948 438.726 525.607C437.453 526.215 435.866 525.695 434.228 525.467L434.27 526.505L434.408 527.292C432.929 526.96 432.078 526.178 431.776 524.675C432.429 524.017 433.129 523.452 433.865 522.889L433.858 521.795C432.951 522.152 432.05 522.489 431.138 522.83C431.328 521.284 431.655 521.143 432.523 519.733Z"/><path fill="white" transform="matrix(2 0 0 2 0 6.10352e-05)" d="M566.274 522.822C570.641 525.253 588.396 534.558 590.457 537.7L590.128 538.908C586.512 543.014 549.605 565.169 543.035 568.841L514.211 551.183C509.488 548.321 501.991 544.029 498.24 540.407C505.171 533.519 513.144 529.07 521.532 524.208C521.423 530.883 521.648 533.467 522.891 540.065C530.511 548.864 539.623 551.665 550.705 548.857C566.619 544.823 566.375 535.949 566.274 522.822Z"/><path fill="white" transform="matrix(2 0 0 2 0 6.10352e-05)" d="M786.908 574.421C788.022 575.607 787.204 578.284 786.976 579.711C785.48 589.088 778.468 596.115 770.791 601.085C743.661 618.649 686.126 617.264 667.365 587.801C665.15 583.203 664.926 581.04 664.305 576.123C689.983 607.963 762.382 608.72 786.908 574.421Z"/><path fill="white" transform="matrix(2 0 0 2 0 6.10352e-05)" d="M348.114 383.882C351 385.102 358.504 391.574 361.211 393.906C367.228 414.484 364.992 415.607 346.82 426.184C342.527 428.683 333.83 436.743 329.144 435.467C328.067 433.744 328.465 433.806 328.499 431.355L328.498 430.565C328.36 415.249 324.137 399.424 312.913 388.6C327.1 396.852 326.493 400.241 340.1 388.862C341.685 387.536 346.202 385.015 348.114 383.882Z"/><path fill="white" transform="matrix(2 0 0 2 0 6.10352e-05)" d="M749.54 643.788C758.951 645.37 784.218 662.981 789.091 671.929C793.396 679.835 793.381 693.897 791.249 702.711C789.025 711.905 781.187 717.317 773.459 721.7C740.401 740.313 674.133 738.891 654.095 701.306C652.282 697.403 652.458 696.055 652.476 691.837C671.414 726.942 724.226 727.543 758.407 719.71C794.01 711.552 805.365 681.073 771.528 660.176C765.655 656.549 758.984 649.144 751.37 646.77C750.04 646.344 749.842 644.91 749.54 643.788Z"/><path fill="white" transform="matrix(2 0 0 2 0 6.10352e-05)" d="M532.439 476.454C538.708 478.232 553.324 476.857 555.377 477.991L555.585 478.64C553.367 485.821 556.621 527.876 554.275 537.28C552.628 540.09 547.411 540.772 545.141 541.083C529.326 543.25 533.311 530.401 532.866 519.328C532.324 505.865 533.71 490.795 532.506 477.171L532.439 476.454Z"/><path fill="white" transform="matrix(2 0 0 2 0 6.10352e-05)" d="M625.897 589.415C627.468 591.131 626.775 605.955 626.693 609.427C622.553 612.772 613.019 618.592 608.237 621.59C593.261 630.982 578.258 639.961 563.289 649.432L562.571 649.016C562.039 644.922 562.568 632.919 562.472 627.728C567.393 625.845 571.007 623.697 575.457 620.892C592.237 610.314 608.878 599.61 625.897 589.415Z"/><path fill="white" transform="matrix(2 0 0 2 0 6.10352e-05)" d="M685.21 654.02C685.379 655.467 682.299 662.801 682.329 666.504C682.005 671.361 685.198 677.532 688.678 680.833C706.798 698.02 743.156 697.529 758.996 677.386C763.053 672.227 763.694 665.235 763.603 658.856C770.008 664.992 770.898 666.243 770.358 675.116C768.3 683.39 764.59 688.45 757.35 692.894C743.097 701.644 724.542 704.824 708.247 701.251C691.208 697.522 671.092 685.338 675.507 664.885C676.695 659.378 680.699 656.573 685.21 654.02Z"/><path fill="white" transform="matrix(2 0 0 2 0 6.10352e-05)" d="M590.498 544.037C590.907 546.34 590.611 566.117 590.599 569.41C575.407 580.139 559.261 588.776 544.747 599.791C544.135 596.569 544.905 576.963 545.002 572.523C559.885 562.907 575.383 553.251 590.498 544.037Z"/><path fill="white" transform="matrix(2 0 0 2 0 6.10352e-05)" d="M584.86 410.174C586.407 411.536 587.524 413.098 588.531 414.852C596.847 429.777 582.793 440.35 570.872 445.873C551.121 455.024 513.214 451.436 503.647 428.809L502.113 423.399C503.543 418.964 504.602 416.853 506.993 412.962C508.566 416.995 511.011 423.838 513.868 426.89C527.74 441.616 552.451 443.024 570.013 434.521C581.405 429.005 584.229 422.07 584.86 410.174Z"/><path fill="white" transform="matrix(2 0 0 2 0 6.10352e-05)" d="M567.615 506.664C570.828 508.174 584.21 517.168 588.867 519.872C612.717 533.721 637.369 547.154 661.028 561.207C660.694 563.32 660.48 565.756 660.238 567.907L659.46 568.24C654.449 565.729 649.204 562.069 644.246 559.268C623.625 547.618 603.813 534.701 582.078 525.133C577.274 523.019 572.026 519.904 567.473 517.232C567.451 513.75 567.556 510.155 567.615 506.664Z"/><path fill="white" transform="matrix(2 0 0 2 0 6.10352e-05)" d="M296.954 386.027C317.633 385.436 325.454 417.636 325.413 433.369L324.862 433.814L323.33 432.822C315.012 420.276 308.913 406.665 292.982 403.378C292.696 397.002 292.162 390.966 296.954 386.027Z"/><path fill="white" transform="matrix(2 0 0 2 0 6.10352e-05)" d="M303.443 358.566C310.715 360.986 327.103 369.202 333.761 373.097C333.936 377.771 334.722 385.842 332.235 389.667L327.937 392.521C319.357 388.31 310.534 384.364 304.62 376.667C304.155 370.584 303.755 364.659 303.443 358.566Z"/><path fill="white" transform="matrix(2 0 0 2 0 6.10352e-05)" d="M285.418 424.074L284.75 423.185C291.538 417.025 301.202 421.441 306.225 427.726C313.794 437.195 318.796 454.43 308.179 463.524C299.356 471.082 286.432 463.44 280.992 455.355C275.256 446.831 271.594 432.068 282.318 425.683C283.474 424.983 283.954 424.916 285.257 424.734C276.992 433.023 277.624 445.537 285.126 453.516C312.844 482.998 313.987 423.865 285.418 424.074Z"/><path fill="white" transform="matrix(2 0 0 2 0 6.10352e-05)" d="M557.297 477.486L558.198 477.106C559.515 476.565 559.839 476.556 561.233 476.378C561.933 476.812 562.64 477.035 562.658 478.085C562.968 496.073 563.279 516.198 562.262 534.003C561.414 548.852 525.336 551.952 525.484 532.113C525.599 516.536 525.825 500.056 525.637 484.398C525.561 481.476 525.389 478.938 525.835 476.059C527.104 474.989 528.179 475.663 529.409 476.531L529.8 477.899C528.958 486.589 529.807 499.869 529.527 509.005C529.458 517.952 529.465 527.086 529.83 535.98C530.324 548.009 553.525 546.21 556.692 539.972C558.849 535.724 558.295 517.38 558.099 511.828C557.729 501.337 559.043 487.465 557.297 477.486Z"/><path fill="white" transform="matrix(2 0 0 2 0 6.10352e-05)" d="M741.941 616.711C743.17 616.496 743.747 616.569 744.989 616.607C745.217 616.85 745.445 617.094 745.674 617.337C746.131 628.888 745.84 653.276 745.589 663.657C743.097 666.228 742.466 666.646 739.526 668.561C738.012 669.383 737.729 669.633 735.974 669.847C735.064 667.921 735.435 623 735.433 617.288L741.941 616.711Z"/><path fill="#060F74" transform="matrix(2 0 0 2 0 6.10352e-05)" d="M284.467 430.85C289.445 424.939 296.457 432.499 299.464 436.946C300.152 438.632 301.006 440.233 300.913 442.015L300.082 442.747L299.88 443.921C300.767 444.956 301.719 445.796 302.081 447.009L301.867 447.469L301.432 447.188C299.727 446.109 299.65 446.005 297.725 445.703L296.877 446.177C297.346 447.893 297.018 447.071 298.665 448.572C301.031 449.874 302.438 450.744 302.331 453.675C301.83 454.285 301.473 454.758 300.526 454.656L300.099 454.855C299.706 457.053 299.679 456.996 298.292 458.062C292.749 459.071 286.19 450.371 283.94 446.09C283.722 444.31 284.146 444.823 283.154 443.996C282.35 438.522 281.722 435.831 284.467 430.85Z"/><path fill="white" transform="matrix(2 0 0 2 0 6.10352e-05)" d="M283.94 446.09L284.801 444.446C290.242 442.776 294.939 456.479 298.977 455.804L300.099 454.855C299.706 457.053 299.679 456.996 298.292 458.062C292.749 459.071 286.19 450.371 283.94 446.09Z"/><path fill="white" transform="matrix(2 0 0 2 0 6.10352e-05)" d="M284.467 430.85C289.445 424.939 296.457 432.499 299.464 436.946C297.392 437.995 297.104 438.578 295.547 440.408C293.332 434.046 296.123 433.999 288.494 431.029C287.558 430.28 286.025 430.73 284.467 430.85Z"/><path fill="#152374" transform="matrix(2 0 0 2 0 6.10352e-05)" d="M299.464 436.946C300.152 438.632 301.006 440.233 300.913 442.015L300.082 442.747C298.776 442.811 298.815 442.845 297.566 442.502C296.889 441.2 296.845 441.096 295.547 440.408C297.104 438.578 297.392 437.995 299.464 436.946Z"/><path fill="#BFB8E4" transform="matrix(2 0 0 2 0 6.10352e-05)" d="M284.467 430.85C286.025 430.73 287.558 430.28 288.494 431.029C288.438 432.403 288.726 431.843 287.755 432.809L288.269 432.642L287.769 433.001C286.296 431.7 286.706 431.61 285.243 431.676C283.283 433.993 283.644 439.605 284.003 442.481L283.154 443.996C282.35 438.522 281.722 435.831 284.467 430.85Z"/><path fill="white" transform="matrix(2 0 0 2 0 6.10352e-05)" d="M298.665 448.572C301.031 449.874 302.438 450.744 302.331 453.675C301.83 454.285 301.473 454.758 300.526 454.656C299.281 452.175 297.997 450.749 298.665 448.572Z"/><path fill="white" transform="matrix(2 0 0 2 0 6.10352e-05)" d="M289.523 438.49C291.043 439.702 292.173 441.218 291.759 443.147C289.371 444.207 287.863 443.725 287.01 441.242C287.607 439.406 287.351 440.015 289.078 438.617L289.523 438.49Z"/><path fill="white" transform="matrix(2 0 0 2 0 6.10352e-05)" d="M289.078 438.617C286.632 439.017 286.844 439.399 285.054 438.516L284.423 437.255C285.039 435.67 284.526 436.271 286.061 435.433C287.839 435.972 288.77 436.716 289.523 438.49L289.078 438.617Z"/><path fill="white" transform="matrix(2 0 0 2 0 6.10352e-05)" d="M367.471 400.348C373.676 405.251 397.866 433.206 401.164 440.232C393.533 434.269 376.986 425.14 368.017 419.249C367.914 411.934 368.964 407.941 367.471 400.348Z"/><path fill="white" transform="matrix(2 0 0 2 0 6.10352e-05)" d="M292.242 408.176C308.604 409.388 323.625 436.786 320.56 451.907C319.953 454.9 318.439 456.607 316.638 458.911C317.377 453.856 317.693 451.361 317.665 446.264C316.518 428.12 297.9 405.365 280.296 422.259C282.529 414.756 283.498 409.205 292.242 408.176Z"/><path fill="white" transform="matrix(2 0 0 2 0 6.10352e-05)" d="M692.467 642.523L694.687 642.599L695.16 643.312C693.731 646.054 682.544 650.689 679.239 652.852C667.862 660.298 657.217 669.375 653.666 682.846L653.366 684.279L652.89 683.855C652.181 680.399 653.122 675.759 654.514 672.611C661.846 656.027 677.194 649.087 692.467 642.523Z"/><path fill="white" transform="matrix(2 0 0 2 0 6.10352e-05)" d="M577.079 423.161C577.002 425.028 576.237 425.796 574.747 426.794C573.655 424.779 574.208 405.484 574.677 402.323C576.568 403.453 576.266 402.911 577.137 404.615L579.258 405.61C582.055 408.688 581.89 419.465 579.304 422.445L577.079 423.161Z"/><path fill="#101849" transform="matrix(2 0 0 2 0 6.10352e-05)" d="M577.137 404.615L579.258 405.61C582.055 408.688 581.89 419.465 579.304 422.445L577.079 423.161C577.007 417.062 577.116 410.734 577.137 404.615Z"/><path fill="white" transform="matrix(2 0 0 2 0 6.10352e-05)" d="M579.258 405.61C582.055 408.688 581.89 419.465 579.304 422.445C578.789 418.346 578.79 409.622 579.258 405.61Z"/><path fill="white" transform="matrix(2 0 0 2 0 6.10352e-05)" d="M512.969 489.896C514.802 490.777 519.599 493.983 521.545 495.213L521.49 501.681C518.956 499.371 514.828 492.856 512.969 489.896Z"/><path fill="white" transform="matrix(2 0 0 2 0 6.10352e-05)" d="M338.736 376.196C340.616 377.358 344.076 379.117 344.587 381.16L343.278 382.086C341.631 382.886 339.934 383.991 338.359 384.956L338.736 376.196Z"/><path fill="white" transform="matrix(2 0 0 2 0 6.10352e-05)" d="M300.684 379.152L302.796 381.755C300.845 382.822 299.157 381.889 296.59 382.568L295.891 382.015C297.912 380.98 298.838 380.462 300.684 379.152Z"/><path fill="#898ECC" transform="matrix(2 0 0 2 0 6.10352e-05)" d="M291.784 384.804C293.373 383.251 293.883 383.084 295.891 382.015L296.59 382.568C294.835 383.586 293.607 384.197 292.093 385.53L291.784 384.804Z"/><path fill="#060F74" transform="matrix(2 0 0 2 0 6.10352e-05)" d="M68.945 661.682C72.4084 662.724 87.4334 671.959 91.3305 674.236L133.045 698.422C140.489 702.798 147.817 707.586 155.388 711.683C169.731 700.113 185.328 689.585 199.546 677.781C201.619 676.06 202.498 675.264 205.304 675.571L205.633 676.434C204.948 677.873 203.848 679.115 202.604 680.096C188.156 691.486 172.599 701.838 158.72 713.871C177.243 725.262 197.509 736.373 216.368 747.418C227.287 753.813 240.274 761.542 251.405 767.142L281.841 744.362C285.763 741.388 297.436 731.219 301.453 730.739L302.059 731.323C301.784 732.523 301.014 733.809 300.016 734.584C285.144 746.125 269.526 757.211 255.096 769.26C258.548 771.096 261.98 773.157 265.291 775.24C285.471 787.931 306.586 798.933 326.94 811.322C332.46 814.683 338.123 817.592 343.381 821.382C352.655 818.053 394.969 780.321 398.634 783.245C398.574 784.37 398.016 785.937 397.078 786.637C392.192 790.28 387.338 793.978 382.446 797.619L348.231 823.318L437.941 874.747C445.764 869.653 476.547 844.532 481.307 843.21L482.368 843.833L482.609 844.918C481.46 847.842 473.049 853.083 470.022 855.395L441.971 876.829L517.976 920.294L549.135 938.213C552.134 939.93 566.912 947.915 568.025 949.776C567.755 951.253 568.12 950.674 566.859 951.547C563.267 951.353 559.104 947.943 555.995 946.137L528.383 930.184L438.858 879.237C419.177 892.518 400.567 909.112 381.145 922.941C371.376 929.898 361.078 937.505 351.726 944.997C354.734 946.528 356.715 947.149 358.552 950.005L358.307 950.71C354.259 951.29 351.784 949.265 348.207 947.212C346.566 948.216 343.375 950.497 341.591 949.962C341.592 948.577 342.404 947.868 343.287 946.726C343.466 946.621 343.992 946.038 344.162 945.862C342.782 943.93 262.6 899.957 253.243 894.186C242.726 903.578 224.092 916.633 212.205 925.702L191.06 941.753C187.842 944.225 175.263 955.243 171.831 953.735L171.711 952.58C173.783 949.359 195.996 933.969 200.533 930.369C216.538 917.67 233.529 905.513 249.363 892.562C246.244 890.636 242.789 888.661 239.584 886.88C212.969 872.086 186.439 855.883 159.384 841.989C151.032 848.274 74.3705 908.013 71.7936 907.99L71.3444 907.294C71.4897 905.995 71.809 904.784 72.8752 903.948C79.8087 898.508 87.1419 892.986 94.1245 887.661L128.524 861.429C137.108 854.933 147.668 847.162 155.771 840.203C135.643 828.415 115.476 817.066 95.0426 805.825C91.6794 803.975 71.1741 793.071 69.7872 790.712L70.3372 789.136L71.2353 788.78C74.1421 789.427 86.8297 797.141 90.4183 799.226C113.07 812.387 136.123 824.686 158.973 837.482C162.759 834.973 166.569 831.977 170.191 829.221C196.16 809.467 221.728 789.29 247.801 769.655C217.383 752.277 185.734 734.162 155.861 716.064C144.887 723.64 133.415 733.183 122.829 740.836C116.371 745.503 88.2573 769.58 82.7068 770.226L82.4011 769.534C82.7532 768.453 83.429 767.446 84.298 766.717C106.054 748.457 129.787 731.947 151.897 714.18C142.656 708.259 69.394 666.077 68.2536 664.31L68.945 661.682Z"/><path fill="white" transform="matrix(2 0 0 2 0 6.10352e-05)" d="M251.239 771.875C254.356 772.645 282.971 789.866 287.162 792.3L319.651 811.077C325.959 814.723 334.872 819.563 340.506 823.855C337.285 826.954 330.84 831.655 327.116 834.49L302.208 853.243C287.558 864.253 267.785 880.206 252.748 890.193L162.875 839.604C174.439 830.163 186.396 821.329 198.104 812.119C215.596 798.358 233.24 784.978 251.239 771.875Z"/><path fill="white" transform="matrix(2 0 0 2 0 6.10352e-05)" d="M344.255 825.944C347.5 826.272 427.186 872.687 434.773 877.11C432.572 879.012 430.142 880.899 427.835 882.696C401.511 903.209 374.957 923.784 347.859 943.25L256.436 891.987C285.896 871.184 315.007 847.199 344.255 825.944Z"/><path fill="#060F74" transform="matrix(2 0 0 2 0 6.10352e-05)" d="M435.56 69.2715C439.359 69.7801 449.004 75.8403 452.956 78.0751L483.686 95.5476L549.131 132.686C557.329 137.36 565.857 141.839 573.92 146.587C579.574 143.002 586.788 137.424 592.293 133.38L623.503 110.221C627.303 107.344 636.035 99.7696 640.851 97.765C641.774 97.3809 642.737 97.7218 643.514 98.3436C643.241 100.042 641.636 101.62 640.282 102.629C619.976 117.758 598.373 132.39 578.63 148.186C586.984 154.088 604.263 162.475 613.951 167.978C631.924 178.184 650.181 188.514 668.321 198.394C689.334 183.264 709.992 167.312 730.381 151.36C738.966 144.643 749.043 138.613 757.054 131.299C746.65 126.038 736.236 119.73 726.082 113.965C707.433 103.376 688.877 92.41 670.071 82.1188C665.748 84.8794 664.76 86.4438 659.654 87.7954L660.132 87.574L658.758 87.3797C659.714 84.0207 666.648 79.6939 669.638 77.5986L718.657 105.522C732.462 113.487 746.193 121.683 760.592 128.513C770.241 121.58 830.154 74.2968 834.428 73.2463C835.401 74.0232 835.328 73.9691 835.685 75.1712C834.327 77.2571 770.309 126.306 764.241 130.825L823.174 164.659C832.614 170.014 843.653 176.659 853.235 181.304L913.298 135.768L937.081 117.779C939.515 115.949 949.057 107.209 951.935 109.467C950.156 113.509 927.358 129.655 922.474 133.392L856.217 183.401C875.373 194.957 896.577 206.109 915.87 217.552C925.62 223.335 943.649 231.885 951.861 238.922C946.332 244.296 929.17 256.097 922.428 261.184C902.757 276.027 882.766 289.873 863.474 305.35L914.996 334.496L939.129 348.263C941.96 349.892 952.653 355.256 953.356 357.699L952.816 358.666C949.998 359.42 932.89 348.944 929.022 346.759L887.499 323.108C879.76 318.636 868.7 311.823 860.935 308.256L860.191 307.918C855.403 311.161 834.102 327.781 830.548 327.85C829.435 326.901 829.801 327.493 829.668 325.896C830.988 323.396 933.348 248.99 945.854 238.953C916.915 220.511 882.427 204.29 853.229 185.799C850.061 188.368 841.151 197.437 837.809 193.356C838.358 191.021 846.341 186.474 849.337 184.048C843.393 180.046 836.54 176.35 830.281 172.813C807.164 159.75 784.208 146.163 760.933 133.399C745.8 144.197 732.032 155.059 717.283 166.268L672.137 200.428C679.949 205.204 690.202 210.548 698.344 215.101L749.612 243.957C755.207 247.136 768.44 253.59 772.245 257.124C772.356 258.619 772.548 257.964 771.674 259.16C768.895 259.746 763.225 255.576 760.553 254.099L738.112 241.601C715.04 228.599 691.862 215.336 668.443 203.043L618.494 240.465C607.025 248.951 594.18 257.951 583.105 266.83C605.905 281.236 631.248 293.646 654.582 307.308C657.266 308.879 660.423 310.291 660.665 313.743L659.803 314.113C656.988 313.493 638.865 302.701 635.386 300.794C616.814 290.615 598.101 279.124 579.391 269.308C565.207 278.837 538.359 299.771 522.713 309.588C522.313 309.839 521.829 309.279 521.35 308.907L521.393 307.879C522.202 306.549 523.302 305.271 524.584 304.376C541.885 292.302 558.472 279.176 575.867 267.245C567.339 262.936 559.289 257.807 550.918 253.17L485.505 216.816L449.644 243.417C446.467 245.786 434.173 256.015 431.288 255.883L431.008 254.934C432.418 250.385 446.518 241.475 450.951 238.199L481.764 214.979C478.769 213.041 475.249 211.381 472.143 209.57C450.226 196.793 427.917 184.608 405.875 172.096L349.447 139.763C343.627 136.499 310.223 118.267 307.583 115.399C307.89 113.848 307.553 114.501 308.59 113.35C312.144 113.122 322.419 120.482 326.194 122.616L364.558 144.363L485.396 212.623C508.133 194.833 532.029 178.347 555.016 160.859C560.3 156.839 565.811 152.93 570.896 148.671C532.036 127.887 493.743 104.984 455.114 83.6479C449.205 80.3843 441.304 76.3383 435.916 72.5124C434.961 70.6676 435.229 71.6811 435.56 69.2715Z"/><path fill="white" transform="matrix(2 0 0 2 0 6.10352e-05)" d="M574.732 150.883C576.874 151.615 594.499 161.35 597.289 162.913C619.339 175.268 643.461 187.814 664.809 201.206C662.374 203.309 659.545 205.473 656.923 207.366C630.901 226.154 605.54 245.97 579.379 264.547C575.696 263.019 572.257 261.153 568.792 259.192C542.292 244.196 515.447 229.694 489.086 214.455C497.94 206.838 509.199 199.632 518.579 192.543C537.179 178.486 555.861 164.576 574.732 150.883Z"/><path fill="#060F74" transform="matrix(2 0 0 2 0 6.10352e-05)" d="M861.324 867.736C861.676 867.821 863.084 868.156 863.73 868.524C889.984 883.501 916.605 897.913 942.792 912.989C942.929 913.35 943.066 913.712 943.203 914.074L942.216 916.27C938.96 915.439 924.666 907.008 920.961 904.916L877.81 880.571C874.595 878.761 862.452 872.378 860.456 870.919C860.123 869.287 860.344 869.641 861.324 867.736Z"/><path fill="#060F74" transform="matrix(2 0 0 2 0 6.10352e-05)" d="M169.578 151.19C175.563 153.488 246.006 194.214 246.752 195.324C247.14 195.901 246.636 197.39 246.512 198.081C245.537 198.207 244.617 197.989 243.763 197.5C221.588 184.827 199.347 172.272 177.207 159.539C174.705 158.1 172.217 156.651 169.895 154.931C169.063 153.166 169.379 153.452 169.578 151.19Z"/><path fill="#060F74" transform="matrix(2 0 0 2 0 6.10352e-05)" d="M64.2444 308.171C66.5636 308.823 80.8624 317.342 83.7078 319.263C100.819 330.818 122.946 339.773 139.651 351.274C139.981 353.09 139.763 352.675 138.683 354.75C135.561 353.817 131.506 351.036 128.617 349.358C107.461 337.071 86.0717 325.175 64.9567 312.819C64.1352 312.338 63.8473 312.023 63.2881 311.275C63.2004 309.168 63.0047 310.195 64.2444 308.171Z"/><path fill="#060F74" transform="matrix(2 0 0 2 0 6.10352e-05)" d="M818.66 237.09C820.727 238.124 820.569 237.63 821.35 239.283C820.615 242.741 818.896 246.613 817.744 250.001C809.851 273.212 801.773 296.286 793.393 319.326C791.59 318.849 791.259 318.868 790.451 317.402C790.902 313.322 798.578 294.141 800.313 288.982C806.138 271.664 812.112 254.14 818.66 237.09Z"/><path fill="#060F74" transform="matrix(2 0 0 2 0 6.10352e-05)" d="M884.697 427.799C885.629 427.822 887.04 427.903 887.827 428.367C895.507 432.917 903.087 437.466 910.805 441.978C924.612 450.049 938.867 457.519 952.258 466.281C953.416 467.039 953.335 468.49 953.474 469.704C949.682 469.609 937.521 461.647 933.56 459.326L908.499 444.963C901.08 440.673 892.76 435.895 885.362 431.413C884.279 430.757 884.667 429.228 884.697 427.799Z"/><path fill="#060F74" transform="matrix(2 0 0 2 0 6.10352e-05)" d="M635.793 423.664C636.921 423.804 638.469 423.725 638.811 424.773C641.13 431.877 655.425 479.021 654.521 483.973C653.167 484.004 653.257 484.04 652.057 483.42C649.23 479.039 638.259 434.487 635.747 427.015C635.475 426.207 635.638 424.582 635.793 423.664Z"/><path fill="#060F74" transform="matrix(2 0 0 2 0 6.10352e-05)" d="M875.818 488.544C876.746 489.527 876.668 489.475 877.043 490.789C876.38 492.054 875.68 492.338 874.322 492.949C856.192 501.104 837.739 508.544 819.685 516.875C818.521 515.16 818.346 515.53 818.532 513.974C822.949 510.192 867.57 491.737 875.818 488.544Z"/><path fill="#060F74" transform="matrix(2 0 0 2 0 6.10352e-05)" d="M898.383 630.238C902.231 631.123 946.359 656.598 950.717 660.089C951.039 661.748 950.902 661.272 949.94 663.166C944.776 661.196 897.605 633.802 897.161 632.347L898.383 630.238Z"/><path fill="#060F74" transform="matrix(2 0 0 2 0 6.10352e-05)" d="M699.224 332.124C701.246 332.435 701.076 332.078 702.291 333.228C702.768 340.701 701.427 357.305 701.263 365.515C701.123 372.509 700.769 390.643 699.715 396.79C698.202 396.689 698.15 396.793 696.83 396.121C696.097 393.76 698.628 336.795 699.224 332.124Z"/><path fill="#060F74" transform="matrix(2 0 0 2 0 6.10352e-05)" d="M696.129 416.633C698.424 417.149 698.243 416.728 699.585 418.138C699.99 423.194 698.034 468.528 696.773 471.79C696.033 471.686 694.444 471.597 694.03 470.865C692.746 468.592 695.499 421.798 696.129 416.633Z"/><path fill="#060F74" transform="matrix(2 0 0 2 0 6.10352e-05)" d="M756.625 417.07C758.084 417.661 758.742 417.74 759.527 419.086C758.819 422.666 754.571 434.325 753.129 438.537C749.366 449.524 745.893 462.902 741.437 473.386C739.546 472.638 739.599 473.002 738.601 471.625C738.787 469.737 743.121 456.854 743.954 454.518C748.219 442.557 751.941 428.688 756.625 417.07Z"/><path fill="#060F74" transform="matrix(2 0 0 2 0 6.10352e-05)" d="M782.265 339.602C784.44 340.328 784.181 339.877 785.382 341.388C785.115 346.322 769.635 387.538 766.836 395.753C765.661 396.16 765.721 396.117 764.468 396.055L764.05 395.436C764.461 389.631 779.281 348.659 782.265 339.602Z"/><path fill="#060F74" transform="matrix(2 0 0 2 0 6.10352e-05)" d="M851.402 382.209C852.665 382.768 852.64 382.671 853.381 383.815C852.298 389.188 830.589 425.62 825.998 432.102L825.615 431.911C823.358 430.76 823.526 431.19 822.996 429.602C831.679 416.613 839.289 403.375 846.447 389.5C847.886 386.71 849.232 384.498 851.402 382.209Z"/><path fill="#060F74" transform="matrix(2 0 0 2 0 6.10352e-05)" d="M815.395 442.134C817.046 442.635 817.323 442.754 817.984 444.095C816.258 450.503 792.721 481.469 787.143 488.82C785.824 488.332 785.831 488.192 784.774 487.215C784.731 485.693 785.003 485.382 786.007 484.059C796.39 470.37 806.241 456.694 815.395 442.134Z"/><path fill="#060F74" transform="matrix(2 0 0 2 0 6.10352e-05)" d="M82.8012 100.154C87.5111 102.734 100.239 108.866 103.708 112.969C104.123 113.46 103.554 114.382 103.245 115.24C99.6796 114.932 85.1942 106.291 82.41 103.684C81.8905 101.941 82.1587 102.255 82.8012 100.154Z"/><path fill="#060F74" transform="matrix(2 0 0 2 0 6.10352e-05)" d="M239.63 74.7586C244.066 75.7053 251.825 80.6645 255.533 83.4646C256.04 84.9693 255.789 84.6131 254.828 86.5949C251.908 86.2571 241.79 80.4194 239.587 77.9908C238.693 77.0054 239.283 76.0037 239.63 74.7586Z"/><path fill="#060F74" transform="matrix(2 0 0 2 0 6.10352e-05)" d="M845.628 600.192C849.211 601.673 856.847 605.781 859.055 608.901C859.155 610.831 859.135 610.214 857.913 612.175C853.48 609.572 847.266 607.203 844.263 603.599C843.996 601.767 844.178 602.255 845.628 600.192Z"/><path fill="#060F74" transform="matrix(2 0 0 2 0 6.10352e-05)" d="M153.471 358.651C156.596 359.496 165.25 364.603 166.141 367.749L165.009 369.768C161.542 367.916 153.104 364.362 152.208 360.604L153.471 358.651Z"/><path fill="#060F74" transform="matrix(2 0 0 2 0 6.10352e-05)" d="M275.795 94.3829C278.614 95.8536 286.642 99.6434 287.189 102.466L285.958 103.986C282.531 102.912 277.304 100.39 274.875 97.5761C274.632 95.7756 274.715 96.3348 275.795 94.3829Z"/><path fill="#060F74" transform="matrix(2 0 0 2 0 6.10352e-05)" d="M834.774 852.176C837.294 852.935 844.479 856.933 846.331 858.887C847.471 860.09 847.023 860.676 846.762 862.087C844.184 861.155 835.39 857.213 834.166 854.508C833.882 853.88 834.437 853.043 834.774 852.176Z"/><path fill="#060F74" transform="matrix(2 0 0 2 0 6.10352e-05)" d="M811.323 839.705C813.943 840.781 820.973 844.219 822.769 846.517C823.27 847.158 822.836 847.775 822.561 848.904C819.185 848.382 813.72 845.665 811.142 843.135C810.479 841.259 810.622 841.967 811.323 839.705Z"/><path fill="#060F74" transform="matrix(2 0 0 2 0 6.10352e-05)" d="M152.458 141.202C154.813 142.371 159.501 144.411 161.065 146.389C162.054 147.64 161.387 148.629 160.943 150.303C157.482 149.109 153.45 147.36 151.291 144.387C151.148 142.573 151.228 143.106 152.458 141.202Z"/><path fill="#060F74" transform="matrix(2 0 0 2 0 6.10352e-05)" d="M178.299 373.199C180.921 374.434 186.943 376.791 187.712 379.611C187.926 380.393 187.334 381.144 186.919 382.016C183.479 380.462 180.132 379.405 177.621 376.718C177.162 374.917 177.39 375.349 178.299 373.199Z"/><path fill="#060F74" transform="matrix(2 0 0 2 0 6.10352e-05)" d="M874.23 616.188C876.729 616.755 880.18 618.736 881.908 620.792C882.352 622.718 882.227 622.092 881.281 624.296C878.422 623.343 874.863 621.853 873.01 619.472C872.719 617.638 872.795 618.245 874.23 616.188Z"/><path fill="#060F74" transform="matrix(2 0 0 2 0 6.10352e-05)" d="M949.837 918.572C953.93 919.686 956.983 920.166 955.979 924.892C953.767 924.49 951.01 923.235 949.457 921.539C948.899 919.685 948.914 920.646 949.837 918.572Z"/></svg>